<svg xmlns="http://www.w3.org/2000/svg" viewBox="0 0 512 512" x="0px" y="0px">
	<path fill="#8f8f8f" d="M491.6,186.193,338.838,163.308,270.432,20.413a16,16,0,0,0-28.864,0L173.162,163.308,20.4,186.193A16,16,0,0,0,11.427,213.3L122.254,324.674,96.072,482.053a16,16,0,0,0,23.407,16.693L256,424.752l136.521,73.994a16,16,0,0,0,23.407-16.693L389.746,324.674,500.573,213.3a16,16,0,0,0-8.971-27.109ZM361.274,307.919a16,16,0,0,0-4.441,13.912L378.99,455.014,263.624,392.486a16,16,0,0,0-15.248,0L133.01,455.014l22.157-133.183a16,16,0,0,0-4.441-13.912l-94.3-94.766L186.3,193.7a16,16,0,0,0,12.061-8.914L256,64.376l57.641,120.407A16,16,0,0,0,325.7,193.7l129.875,19.456Z" />
</svg>
